
<svg xmlns="http://www.w3.org/2000/svg" viewBox="0 0 400 300">
    <defs>
        <linearGradient id="teamza-gradient" x1="0%" y1="0%" x2="100%" y2="0%">
            <stop offset="0%" style="stop-color:#00d4aa;stop-opacity:1" />
            <stop offset="100%" style="stop-color:#0080ff;stop-opacity:1" />
        </linearGradient>
        <linearGradient id="person-gradient" x1="0%" y1="0%" x2="100%" y2="100%">
            <stop offset="0%" style="stop-color:#26c6da;stop-opacity:1" />
            <stop offset="100%" style="stop-color:#4fc3f7;stop-opacity:1" />
        </linearGradient>
    </defs>
    
    <!-- Background circle with gradient -->
    <circle cx="200" cy="150" r="120" fill="none" stroke="url(#teamza-gradient)" stroke-width="6" opacity="0.3"/>
    <circle cx="200" cy="150" r="100" fill="none" stroke="url(#teamza-gradient)" stroke-width="3" opacity="0.2"/>
    
    <!-- Team members in circular formation around table -->
    <g transform="translate(200, 150)">
        
        <!-- Central table/meeting surface -->
        <ellipse cx="0" cy="10" rx="45" ry="20" fill="#f5f5f5" stroke="#ddd" stroke-width="2"/>
        <ellipse cx="0" cy="5" rx="45" ry="20" fill="white" stroke="#ddd" stroke-width="1"/>
        
        <!-- Laptop on table -->
        <rect x="-8" y="-2" width="16" height="10" fill="#333" rx="1"/>
        <rect x="-7" y="-1" width="14" height="8" fill="#4fc3f7" rx="1"/>
        
        <!-- Team members around the circle -->
        
        <!-- Person 1 - Top -->
        <g transform="translate(0, -75)">
            <ellipse cx="0" cy="20" rx="12" ry="6" fill="#e0e0e0" opacity="0.3"/>
            <rect x="-8" y="0" width="16" height="20" fill="url(#person-gradient)" rx="2"/>
            <circle cx="0" cy="-8" r="8" fill="#ffcc80"/>
            <path d="M-6,-12 L6,-12 Q8,-12 8,-10 L8,-6 Q8,-4 6,-4 L-6,-4 Q-8,-4 -8,-6 L-8,-10 Q-8,-12 -6,-12" fill="#4fc3f7"/>
        </g>
        
        <!-- Person 2 - Top Right -->
        <g transform="translate(53, -53) rotate(45)">
            <ellipse cx="0" cy="20" rx="12" ry="6" fill="#e0e0e0" opacity="0.3"/>
            <rect x="-8" y="0" width="16" height="20" fill="url(#person-gradient)" rx="2"/>
            <circle cx="0" cy="-8" r="8" fill="#ffcc80"/>
            <path d="M-6,-12 L6,-12 Q8,-12 8,-10 L8,-6 Q8,-4 6,-4 L-6,-4 Q-8,-4 -8,-6 L-8,-10 Q-8,-12 -6,-12" fill="#26c6da"/>
        </g>
        
        <!-- Person 3 - Right -->
        <g transform="translate(75, 0) rotate(90)">
            <ellipse cx="0" cy="20" rx="12" ry="6" fill="#e0e0e0" opacity="0.3"/>
            <rect x="-8" y="0" width="16" height="20" fill="url(#person-gradient)" rx="2"/>
            <circle cx="0" cy="-8" r="8" fill="#ffcc80"/>
            <path d="M-6,-12 L6,-12 Q8,-12 8,-10 L8,-6 Q8,-4 6,-4 L-6,-4 Q-8,-4 -8,-6 L-8,-10 Q-8,-12 -6,-12" fill="#4fc3f7"/>
        </g>
        
        <!-- Person 4 - Bottom Right -->
        <g transform="translate(53, 53) rotate(135)">
            <ellipse cx="0" cy="20" rx="12" ry="6" fill="#e0e0e0" opacity="0.3"/>
            <rect x="-8" y="0" width="16" height="20" fill="url(#person-gradient)" rx="2"/>
            <circle cx="0" cy="-8" r="8" fill="#ffcc80"/>
            <path d="M-6,-12 L6,-12 Q8,-12 8,-10 L8,-6 Q8,-4 6,-4 L-6,-4 Q-8,-4 -8,-6 L-8,-10 Q-8,-12 -6,-12" fill="#26c6da"/>
        </g>
        
        <!-- Person 5 - Bottom -->
        <g transform="translate(0, 75) rotate(180)">
            <ellipse cx="0" cy="20" rx="12" ry="6" fill="#e0e0e0" opacity="0.3"/>
            <rect x="-8" y="0" width="16" height="20" fill="url(#person-gradient)" rx="2"/>
            <circle cx="0" cy="-8" r="8" fill="#ffcc80"/>
            <path d="M-6,-12 L6,-12 Q8,-12 8,-10 L8,-6 Q8,-4 6,-4 L-6,-4 Q-8,-4 -8,-6 L-8,-10 Q-8,-12 -6,-12" fill="#4fc3f7"/>
        </g>
        
        <!-- Person 6 - Bottom Left -->
        <g transform="translate(-53, 53) rotate(225)">
            <ellipse cx="0" cy="20" rx="12" ry="6" fill="#e0e0e0" opacity="0.3"/>
            <rect x="-8" y="0" width="16" height="20" fill="url(#person-gradient)" rx="2"/>
            <circle cx="0" cy="-8" r="8" fill="#ffcc80"/>
            <path d="M-6,-12 L6,-12 Q8,-12 8,-10 L8,-6 Q8,-4 6,-4 L-6,-4 Q-8,-4 -8,-6 L-8,-10 Q-8,-12 -6,-12" fill="#26c6da"/>
        </g>
        
        <!-- Person 7 - Left -->
        <g transform="translate(-75, 0) rotate(270)">
            <ellipse cx="0" cy="20" rx="12" ry="6" fill="#e0e0e0" opacity="0.3"/>
            <rect x="-8" y="0" width="16" height="20" fill="url(#person-gradient)" rx="2"/>
            <circle cx="0" cy="-8" r="8" fill="#ffcc80"/>
            <path d="M-6,-12 L6,-12 Q8,-12 8,-10 L8,-6 Q8,-4 6,-4 L-6,-4 Q-8,-4 -8,-6 L-8,-10 Q-8,-12 -6,-12" fill="#4fc3f7"/>
        </g>
        
        <!-- Person 8 - Top Left -->
        <g transform="translate(-53, -53) rotate(315)">
            <ellipse cx="0" cy="20" rx="12" ry="6" fill="#e0e0e0" opacity="0.3"/>
            <rect x="-8" y="0" width="16" height="20" fill="url(#person-gradient)" rx="2"/>
            <circle cx="0" cy="-8" r="8" fill="#ffcc80"/>
            <path d="M-6,-12 L6,-12 Q8,-12 8,-10 L8,-6 Q8,-4 6,-4 L-6,-4 Q-8,-4 -8,-6 L-8,-10 Q-8,-12 -6,-12" fill="#26c6da"/>
        </g>
        
        <!-- Connection lines between people and center -->
        <g stroke="url(#teamza-gradient)" stroke-width="1.5" opacity="0.4">
            <line x1="0" y1="-55" x2="0" y2="-25"/>
            <line x1="38" y1="-38" x2="18" y2="-18"/>
            <line x1="55" y1="0" x2="25" y2="0"/>
            <line x1="38" y1="38" x2="18" y2="18"/>
            <line x1="0" y1="55" x2="0" y2="25"/>
            <line x1="-38" y1="38" x2="-18" y2="18"/>
            <line x1="-55" y1="0" x2="-25" y2="0"/>
            <line x1="-38" y1="-38" x2="-18" y2="-18"/>
        </g>
    </g>
    
    <!-- Decorative elements -->
    <line x1="50" y1="280" x2="150" y2="280" stroke="url(#teamza-gradient)" stroke-width="4" stroke-linecap="round"/>
    <line x1="250" y1="280" x2="350" y2="280" stroke="url(#teamza-gradient)" stroke-width="4" stroke-linecap="round"/>
</svg>
